<svg viewBox="0 0 300 220" xmlns="http://www.w3.org/2000/svg">
    <defs>
        <linearGradient id="a" y1="100%">
            <stop stop-color="#8545c6" offset="0"/>
            <stop stop-color="#EA1d76" offset="1"/>
        </linearGradient>
    </defs>
    <g transform="translate(-410 -220)">
        <g transform="translate(404 147)">
            <g transform="translate(6.509 73.403)">
                <g transform="translate(0 1.858)" fill="url(#a)">
                    <path d="m219.7 26.2-21.9-22-74.4 74.6c-3.6 3.6-6 7.9-7.2 12.5-1.3-4.6-3.7-8.9-7.2-12.5L34.6 4.3l-21.9 22c-11 11-11 29.1 0 40.1l53 53.1 50.1 50.3.4.4 80.1-80.4 23.4-23.4c11-11.1 11-29.1 0-40.2"/>
                    <path d="M255.3 141.6c-3.6-3.6-7.9-6-12.4-7.2 4.6-1.3 8.9-3.7 12.4-7.2l32.4-32.6-21.9-22c-11-11-29-11-40 0L214.4 84l-46.5 46.7-3.6 3.6 10.3 10.4 39.2 39.3 18.8 18.9c11 11 29 11 40 0l21.9-22-39.2-39.3"/>
                </g>
            </g>
        </g>
    </g>
</svg>
